<svg width="25" height="24" viewBox="0 0 25 24" fill="none" xmlns="http://www.w3.org/2000/svg">
<path d="M16.08 12C16.08 13.98 14.48 15.58 12.5 15.58C10.52 15.58 8.92 13.98 8.92 12C8.92 10.02 10.52 8.41998 12.5 8.41998C14.48 8.41998 16.08 10.02 16.08 12Z" stroke="#6B7380" stroke-width="1.5" stroke-linecap="round" stroke-linejoin="round"/>
<path d="M12.5 20.27C16.03 20.27 19.32 18.19 21.61 14.59C22.51 13.18 22.51 10.81 21.61 9.39997C19.32 5.79997 16.03 3.71997 12.5 3.71997C8.97 3.71997 5.68 5.79997 3.39 9.39997C2.49 10.81 2.49 13.18 3.39 14.59C5.68 18.19 8.97 20.27 12.5 20.27Z" stroke="#6B7380" stroke-width="1.5" stroke-linecap="round" stroke-linejoin="round"/>
</svg>
