<svg width="118" height="43" viewBox="0 0 118 43" fill="none" xmlns="http://www.w3.org/2000/svg">
<path fill-rule="evenodd" clip-rule="evenodd" d="M34 0L0 8V42H34V0ZM10 14V35H23.17V31.34H13.66V25.58H21.205V21.92H13.66V17.66H23.17V14H10Z" fill="#2C9CF2"/>
<path d="M52.3749 33.968C50.7189 33.968 49.2069 33.542 47.8389 32.69C46.4829 31.838 45.3969 30.692 44.5809 29.252C43.7769 27.812 43.3749 26.222 43.3749 24.482C43.3749 23.174 43.6089 21.95 44.0769 20.81C44.5449 19.658 45.1869 18.65 46.0029 17.786C46.8309 16.91 47.7909 16.226 48.8829 15.734C49.9749 15.242 51.1389 14.996 52.3749 14.996C53.7789 14.996 55.0629 15.296 56.2269 15.896C57.4029 16.484 58.3989 17.294 59.2149 18.326C60.0309 19.358 60.6249 20.534 60.9969 21.854C61.3689 23.174 61.4529 24.554 61.2489 25.994H48.0909C48.2589 26.666 48.5349 27.272 48.9189 27.812C49.3029 28.34 49.7889 28.766 50.3769 29.09C50.9649 29.402 51.6309 29.564 52.3749 29.576C53.1429 29.588 53.8389 29.408 54.4629 29.036C55.0989 28.652 55.6269 28.136 56.0469 27.488L60.5289 28.532C59.7969 30.128 58.7049 31.436 57.2529 32.456C55.8009 33.464 54.1749 33.968 52.3749 33.968ZM47.9469 22.7H56.8029C56.6709 21.98 56.3889 21.332 55.9569 20.756C55.5369 20.168 55.0149 19.7 54.3909 19.352C53.7669 19.004 53.0949 18.83 52.3749 18.83C51.6549 18.83 50.9889 19.004 50.3769 19.352C49.7649 19.688 49.2429 20.15 48.8109 20.738C48.3909 21.314 48.1029 21.968 47.9469 22.7ZM64.5995 20.504H76.1195V24.896H64.5995V20.504ZM79.7349 26.84V15.5H84.1269V25.688C84.1269 26.396 84.3009 27.044 84.6489 27.632C84.9969 28.208 85.4589 28.67 86.0349 29.018C86.6229 29.354 87.2649 29.522 87.9609 29.522C88.6809 29.522 89.3289 29.354 89.9049 29.018C90.4809 28.67 90.9429 28.208 91.2909 27.632C91.6389 27.044 91.8129 26.396 91.8129 25.688V15.5H96.2049L96.2229 33.5H91.8309L91.8129 31.862C91.1889 32.51 90.4509 33.026 89.5989 33.41C88.7469 33.782 87.8349 33.968 86.8629 33.968C85.5549 33.968 84.3609 33.65 83.2809 33.014C82.2009 32.366 81.3369 31.508 80.6889 30.44C80.0529 29.36 79.7349 28.16 79.7349 26.84ZM111.612 15.5H116.274L106.428 42.5H101.766L105.024 33.5L98.5435 15.5H103.35L107.22 27.488L111.612 15.5Z" fill="#2C9CF2"/>
</svg>
